<svg xmlns="http://www.w3.org/2000/svg" width="200" height="200" viewBox="0 0 200 200">
<!-- SVG created with Arrow, by QuiverAI (https://quiver.ai) -->
  <path d="m194.9 100.3c0 51.67-43.93 94.5-95.29 94.5-51.9 0-94.65-42.74-94.65-94.5 0-52.2 42.77-95.26 94.65-95.26 51.36 0 95.29 42.83 95.29 95.26z" fill="#F8DA30"/>
  <path d="m99.53 5.01v189.7c51.6 0 95.38-42.84 95.38-94.5 0-52.43-43.78-95.24-95.38-95.24z" fill="#F4C300"/>
  <path d="m184.3 91.77c-2.04-21.13-12.34-41.7-29.65-56.84l-4.91-2.87c-4.56-3.4-9.84-1.63-12.07 2.2l-22.64 39.2 0.04 0.11c9.4 5.74 15.51 14.61 15.63 26.13h45.07c4.71 0 8.92-3.58 8.53-7.93z" fill="#000" stroke="#F8DA30" stroke-miterlimit="10" stroke-width=".5"/>
  <path d="m138.1 165.7-22.62-38.92c-5.62 3.67-10.63 4.37-16.04 4.2-6.2-0.2-9.85-1.46-14.85-4.24l-23.05 38.48c-2.72 4.84-1.27 9.91 4.96 12.21 9.84 4.22 20.78 6.56 32.94 6.56 12.07 0 23.88-2.97 35.12-7.77 5.19-2.11 5.55-7.21 3.54-10.52z" fill="#000" stroke="#F8DA30" stroke-miterlimit="10" stroke-width=".5"/>
  <path d="m15.05 91.77c2-20.49 11.12-40.09 28.27-54.96l5.57-4.52c4.98-3.65 10.44-2.89 13.14 1.97l22.63 38.88-0.09 0.37c-9.41 5.74-15.2 14.67-15.31 26.19h-45.37c-4.7 0-9.21-3.58-8.84-7.93z" fill="#000" stroke="#F8DA30" stroke-miterlimit="10" stroke-width=".5"/>
  <path d="m99.58 76.91c-12.7 0-22.74 10.73-22.74 23.11 0 12.37 10.28 22.47 22.57 22.47 12.3 0 23.21-10.66 23.21-22.68 0-12.03-10.44-22.9-23.04-22.9zm15.08 26.7h-29.76v-7.7h29.76v7.7z" fill="#000" stroke="#F8DA30" stroke-miterlimit="10" stroke-width=".5"/>
</svg>